<svg xmlns="http://www.w3.org/2000/svg" viewBox="0 0 24 24" height="24" width="24" preserveAspectRatio="xMidYMid meet" class="" fill="none"><title>archive-refreshed</title><path d="M5 8V19H19V8H5ZM5 21C4.45 21 3.97917 20.8042 3.5875 20.4125C3.19583 20.0208 3 19.55 3 19V6.525C3 6.29167 3.0375 6.06667 3.1125 5.85C3.1875 5.63333 3.3 5.43333 3.45 5.25L4.7 3.725C4.88333 3.49167 5.1125 3.3125 5.3875 3.1875C5.6625 3.0625 5.95 3 6.25 3H17.75C18.05 3 18.3375 3.0625 18.6125 3.1875C18.8875 3.3125 19.1167 3.49167 19.3 3.725L20.55 5.25C20.7 5.43333 20.8125 5.63333 20.8875 5.85C20.9625 6.06667 21 6.29167 21 6.525V19C21 19.55 20.8042 20.0208 20.4125 20.4125C20.0208 20.8042 19.55 21 19 21H5ZM5.4 6H18.6L17.75 5H6.25L5.4 6Z" fill="currentColor"/><path d="M15.3 14.45L12 17.75L8.7 14.45C8.3134 14.0634 8.3134 13.4366 8.7 13.05C9.0866 12.6634 9.7134 12.6634 10.1 13.05L11 13.95V10.75C11 10.1977 11.4477 9.75 12 9.75C12.5523 9.75 13 10.1977 13 10.75V13.95L13.9 13.05C14.2866 12.6634 14.9134 12.6634 15.3 13.05C15.6866 13.4366 15.6866 14.0634 15.3 14.45Z" fill="currentColor" class=""/></svg>